<?xml version="1.0" ?>
<!DOCTYPE svg  PUBLIC '-//W3C//DTD SVG 1.1//EN'  'http://www.w3.org/Graphics/SVG/1.1/DTD/svg11.dtd'>
<!-- Uploaded to: SVG Repo, www.svgrepo.com, Generator: SVG Repo Mixer Tools -->
<svg fill="#000000" width="800px" height="800px" viewBox="0 0 64 64" style="fill-rule:evenodd;clip-rule:evenodd;stroke-linejoin:round;stroke-miterlimit:2;" version="1.1" xml:space="preserve" xmlns="http://www.w3.org/2000/svg" xmlns:serif="http://www.serif.com/" xmlns:xlink="http://www.w3.org/1999/xlink">
<g id="ICON">
<path d="M59,43l-54,0l-0,-8c-0,-0.552 -0.448,-1 -1,-1c-0.552,-0 -1,0.448 -1,1l-0,13c-0,0.796 0.316,1.559 0.879,2.121c0.562,0.563 1.325,0.879 2.121,0.879l4,0c0.552,0 1,-0.448 1,-1c-0,-0.552 -0.448,-1 -1,-1l-4,0c-0.265,-0 -0.52,-0.105 -0.707,-0.293c-0.188,-0.187 -0.293,-0.442 -0.293,-0.707l-0,-3l54,0l-0,3c0,0.265 -0.105,0.52 -0.293,0.707c-0.187,0.188 -0.442,0.293 -0.707,0.293l-44,0c-0.552,0 -1,0.448 -1,1c0,0.552 0.448,1 1,1l12.606,0c-0.16,2.682 -0.855,6.147 -3.417,8l-1.689,0c-0.552,-0 -1,0.448 -1,1c-0,0.552 0.448,1 1,1l21,0c0.552,-0 1,-0.448 1,-1c-0,-0.552 -0.448,-1 -1,-1l-1.689,0c-2.562,-1.854 -3.257,-5.318 -3.417,-8l20.606,0c0.796,-0 1.559,-0.316 2.121,-0.879c0.563,-0.562 0.879,-1.325 0.879,-2.121c-0,-6.028 -0,-23.972 -0,-30c0,-0.796 -0.316,-1.559 -0.879,-2.121c-0.562,-0.563 -1.325,-0.879 -2.121,-0.879l-10,0c-0.552,0 -1,0.448 -1,1c-0,0.552 0.448,1 1,1l10,0c0.265,0 0.52,0.105 0.707,0.293c0.188,0.187 0.293,0.442 0.293,0.707l-0,25Zm-23.606,8l-6.788,0c-0.155,2.531 -0.785,5.68 -2.585,8l11.958,0c-1.8,-2.32 -2.43,-5.47 -2.585,-8Zm-20.394,-12l-6,0c-0.552,0 -1,0.448 -1,1c0,0.552 0.448,1 1,1l6,0c-0,0.552 0.448,1 1,1c0.552,0 1,-0.448 1,-1c0,0 38,0 38,0c0.552,0 1,-0.448 1,-1c0,-0.552 -0.448,-1 -1,-1l-38,0c-0,-0.552 -0.448,-1 -1,-1c-0.552,0 -1,0.448 -1,1Zm28,-18l-22,0c-1.657,0 -3,1.343 -3,3c0,2.871 0,8.129 0,11c-0,1.657 1.343,3 3,3l22,0c1.657,-0 3,-1.343 3,-3c0,-2.871 0,-8.129 0,-11c0,-1.657 -1.343,-3 -3,-3Zm0,2c0.552,0 1,0.448 1,1l0,11c0,0.552 -0.448,1 -1,1c-0,0 -22,-0 -22,-0c-0.552,-0 -1,-0.448 -1,-1l-0,-11c-0,-0.552 0.448,-1 1,-1l22,0Zm-6.533,7.384c0.328,-0.173 0.533,-0.513 0.533,-0.884c-0,-0.371 -0.205,-0.711 -0.533,-0.884l-6.625,-3.5c-0.31,-0.164 -0.683,-0.153 -0.983,0.028c-0.3,0.18 -0.484,0.505 -0.484,0.856l-0,7c-0,0.351 0.184,0.676 0.484,0.856c0.3,0.181 0.673,0.192 0.983,0.028l6.625,-3.5Zm-20.467,-15.384l-10,0c-0.796,0 -1.559,0.316 -2.121,0.879c-0.563,0.562 -0.879,1.325 -0.879,2.121c-0,2.509 -0,8.581 -0,13.5c-0,0.552 0.448,1 1,1c0.552,0 1,-0.448 1,-1l-0,-13.5c-0,-0.265 0.105,-0.52 0.293,-0.707c0.187,-0.188 0.442,-0.293 0.707,-0.293c0,0 10,0 10,0c0.552,0 1,-0.448 1,-1c-0,-0.552 -0.448,-1 -1,-1Zm17.859,14.5l-3.484,1.841c-0,-0 -0,-3.682 -0,-3.682l3.484,1.841Zm-13.322,-20.386c0.001,-0.001 10.984,-5.992 10.984,-5.992c0.299,-0.163 0.659,-0.163 0.958,0l11,6c0.321,0.175 0.521,0.512 0.521,0.878c-0,0.366 -0.2,0.703 -0.521,0.878l-3.479,1.897l0,4.225c0,1.657 -1.343,3 -3,3l-10,-0c-1.657,-0 -3,-1.343 -3,-3l0,-4.225l-2,-1.09l0,5.315c-0,0.552 -0.448,1 -1,1c-0.552,-0 -1,-0.448 -1,-1l0,-7c0,-0.385 0.218,-0.719 0.537,-0.886Zm17.463,4.752l-5.521,3.012c-0.299,0.163 -0.659,0.163 -0.958,-0l-5.521,-3.012l0,3.134c-0,0.552 0.448,1 1,1c0,-0 10,0 10,-0c0.552,-0 1,-0.448 1,-1l0,-3.134Zm-13.078,-4.866l4.078,-0c0.552,0 1,0.448 1,1c-0,0.552 -0.448,1 -1,1l-4.078,0l7.078,3.861c0,-0 8.912,-4.861 8.912,-4.861l-8.912,-4.861l-7.078,3.861Z"/>
</g>
</svg>